<svg xmlns="http://www.w3.org/2000/svg" viewBox="0 0 464.44 401.94"><defs><style>.cls-1{fill:#417bfd;}.cls-2{fill:#f4f4f4;}.cls-3{fill:#27333a;}.cls-4{fill:#eeeff1;}.cls-5{fill:#e9effc;}.cls-6{fill:#e0e1e4;}.cls-7{fill:#efefef;}.cls-8{fill:#303e4a;}.cls-9{fill:#e8eefc;}.cls-10{fill:#e5e5e5;}.cls-11{fill:#e0e0e0;}.cls-12{fill:#26333d;}.cls-13{fill:#2a353a;}.cls-14{fill:#427bfd;}.cls-15{fill:#fab376;}.cls-16{fill:#fab374;}.cls-17{fill:#fcfdfd;}.cls-18{fill:#3362cc;}.cls-19{fill:#f8f8f8;}.cls-20{fill:#eaf0fe;}.cls-21{fill:#fdfdfd;}.cls-22{fill:#f9f9f9;}.cls-23{fill:#f5f8fd;}.cls-24{fill:#fefefe;}.cls-25{fill:#222b31;}.cls-26{fill:#c6c8ca;}.cls-27{fill:#3462ca;}.cls-28{fill:#427cfd;}.cls-29{fill:#447dfe;}.cls-30{fill:#3b69cf;}</style></defs><g id="Layer_2" data-name="Layer 2"><g id="Layer_1-2" data-name="Layer 1"><path class="cls-1" d="M294.85,332.82l-1.28,0a26.13,26.13,0,0,0-3.88-.57q-42,0-83.94,0c-33,0-66,.11-98.93-.1-3.76,0-7.51-1.81-11.26-2.77-1.75-3.16-4.13-6.14-5.14-9.53-9.5-31.71-18.76-63.49-28.09-95.25-2.16-7.35-1.81-8.24,5-12-6.46-2.36-9.39-7-9.29-13.68,0-2.31-.5-4.63-.66-7q-4.53-63.76-9-127.55c-.41-5.91-1.33-12,2-17.51L55.13,44l10.11-.13,21-.15c1.82.12,3.64.35,5.47.35q88.47,0,177,0c1.82,0,3.64-.2,5.47-.3l3,.12,16,2c4.13,3,6,7.09,6.3,12,.24,4,.43,7.94.71,11.91q2.14,30,4.33,60.1.42,6,.83,12.09c0,1.82,0,3.65.14,5.46,1.22,17.19,2.39,34.38,3.74,51.56.47,5.92-.77,10.77-7.42,13.73l7.29,2.48c2.68,3.29,5.74,6.35,8,9.92,4.88,7.85,9.33,16,14,23.95l11.23,20.3c1,1.9,1.89,3.82,2.93,5.67C353.56,290.11,362,305,370.28,320c4.76,8.57,2.58,12.06-7.38,12.2-2.12,0-4.24.42-6.35.65l-41.27-.26ZM173.51,53.89h-106c-10.84,0-11,.35-10.1,11.36,1.74,22.23,3.22,44.49,4.82,66.74,1.54,21.42,3,42.84,4.71,64.25.55,7,1.43,7.61,8.75,7.61H187.19q52.74,0,105.47,0c6.65,0,7.86-1.41,7.29-8-.4-4.65-.67-9.3-1-14q-4.33-60.28-8.65-120.56c-.47-6.55-1.24-7.4-7.82-7.4ZM211.69,278H329.17c6.53,0,7.21-1.2,4.07-6.85-8.47-15.26-17-30.5-25.31-45.84-2.06-3.8-4.61-5.47-9.08-5.44-25.66.18-51.32.09-77,.09H76.39c-5.57,0-6,.54-4.44,5.63,4.45,14.78,8.85,29.58,13.38,44.34,2.39,7.78,2.94,8.06,11.39,8.06Zm57.61,44.75a30.52,30.52,0,0,0-1.14-3.84c-4.52-9.82-9.26-19.54-13.54-29.46-1.36-3.14-3.27-4.42-6.38-4.43h-65c-3.82,0-4.55,1.55-3.12,5.05,3.77,9.23,7.48,18.49,10.8,27.88,1.32,3.73,3.12,5.19,7.16,5.16,22-.17,44-.08,66-.09C265.66,323,267.24,322.86,269.3,322.75Z"/><path class="cls-2" d="M386.87,378.16c9.09.62,18.2,1,27.25,1.9,14.47,1.47,28.91,3.22,43.34,5,2.32.3,4.51,1.58,6.76,2.41l.22,2c-3.55,1.13-7,2.87-10.67,3.28-14.63,1.62-29.28,3.22-44,4.12-22.19,1.34-44.41,2.14-66.62,3.07-10.78.45-21.57.88-32.37,1-45.45.41-90.91.81-136.36,1-15.13.05-30.25-.5-45.37-1-16.76-.53-33.54-.78-50.24-2.08C55,397,31.11,394.4,7.26,391.94c-2.44-.25-4.77-1.59-7.16-2.42L0,387.8c2.14-.9,4.21-2.27,6.44-2.6,10.45-1.56,20.92-3.3,31.45-4.09C56.24,379.72,74.63,379,93,378c5.62-.31,11.24-.8,16.87-.94,17-.41,33.91-.82,50.87-1,39-.42,77.91-.67,116.87-1.09,1.95,0,3.9-1,5.85-1.58,6.75,1.62,13.54,3.07,20.22,4.93,2.67.74,3.72.17,3.9-2.44L372,378l-14.6,7.64-.27,1.71c10.14,2.7,20.73-.33,31.68,1.39C388.07,384.57,387.47,381.36,386.87,378.16Z"/><path class="cls-3" d="M331.05,249.2c-4.63-8-9.08-16.1-14-23.95-2.22-3.57-5.28-6.63-8-9.92q7.78-25.37,15.56-50.72l49.46,6.44q-1,14.49-2,29-.84,10-1.66,20l-.21,6q-.26,4.55-.53,9.07c-1.64,23.54-.93,46.93,4.2,70.06.37,2,.73,3.95,1.1,5.93q4.4,24.48,8.8,49l-18.44-.13q-4.45-13.53-8.9-27.07c2.12-.23,4.24-.62,6.36-.65,10-.14,12.14-3.63,7.38-12.2-8.31-15-16.72-29.87-25.07-44.81-1-1.85-2-3.77-2.93-5.67q-.31-17.17-.64-34.35.11-10.14.2-20.29V194.5c-1.35.68-1.81,1.38-2,2.14-2.25,11.81-4.54,23.62-6.59,35.46-.27,1.56.75,3.34,1.17,5Q332.75,243.17,331.05,249.2Z"/><path class="cls-4" d="M65.24,43.9,55.13,44q0-18.72.06-37.45C55.2,0,55.2,0,61.58,0H239.39L417.21,0q0,47.85,0,95.71,0,15,0,29.91c0,2.19.28,4.18-3.08,4.43-7.94.59-7.93.76-7.92,8.93,0,1,0,2,0,3l-16,0c-1-5.93,1.51-11,4-16.1,1-7.37,2.51-14.72,2.95-22.13.41-7-3.34-11.67-10.09-13.67-5.09-1.52-10.31-2.61-15.47-3.89L371,71c14.86,2.54,28.48,7.28,37.21,21.69,0-26.56-.11-52.38.1-78.19,0-4.47-1.25-5.57-5.62-5.55-41.16.16-82.32.1-123.49.1H94.2C86,9,77.88,9.14,69.73,8.94c-3.43-.09-4.67.94-4.6,4.5C65.35,23.59,65.23,33.75,65.24,43.9Z"/><path class="cls-5" d="M35.19,266a37.66,37.66,0,0,1-8.71-27.11,86.11,86.11,0,0,1,8-31.77c2.78-5.76,5.44-11.95,6.23-18.19.57-4.54-1.72-9.59-3.29-14.22-1.7-5-4.27-9.72-6.07-14.7-5.6-15.55-2.38-29.62,7.74-42.29,2.77-3.47,6.07-6.51,9.12-9.74.28,1.63.69,3.24.81,4.88,2,28.38,4.15,56.75,5.88,85.14.41,6.63,2.3,11.78,9.6,15-6.87,2.1-6.84,6-5.34,11,6.67,22.26,13.11,44.59,19.63,66.9-10.26.31-20.47.42-29.51-7.66l6.49-2.62c-5.2-3.08-9.89-5.86-14.57-8.65Z"/><path class="cls-6" d="M95.56,329.39c3.75,1,7.5,2.75,11.26,2.78,33,.21,66,.1,98.93.1q42,0,83.94,0a26.13,26.13,0,0,1,3.88.57c-3.29-.14-4.54,1.2-4.55,4.71s-1.12,6.77-1.74,10.15l-1.52-.24c.45-4.57.91-9.13,1.42-14.27H205.42l-48.31,0c-4,.27-7.91.78-11.87.79-23,.08-46,0-68.94,0-22,0-44-.11-65.93.09-4.25,0-5.45-1.31-5.25-5.39a177.8,177.8,0,0,0,0-18.47c-.23-4.2,1.2-5.34,5.33-5.31,22.14.19,44.29.13,66.44,0,1.84,0,3.67-.85,5.51-1.3q1.51,5.16,3,10.32H47.56c4,5.9,8.75,8.34,13.77,8.85,9,.92,18.18.77,27.27,1.07Z"/><path class="cls-7" d="M82.4,303.65c-1.84.45-3.67,1.3-5.51,1.3-22.15.1-44.3.16-66.44,0-4.13,0-5.56,1.11-5.33,5.31a177.8,177.8,0,0,1,0,18.47c-.2,4.08,1,5.43,5.25,5.39,22-.2,44-.09,65.93-.09,23,0,46,0,68.94,0,4,0,7.91-.52,11.87-.79l-.9,14.81c-3.68.58-6.2-.54-6.77-4.57-.65-4.62-3.53-5.51-7.81-5.48-28.81.16-57.63.08-86.44.07H17.47c-8.25,0-9.67,1.38-10.27,10H1.47c-.11-2.17-.27-3.79-.27-5.4,0-23.12.09-46.23-.1-69.35,0-4.11,1.09-5.5,5.29-5.34,8.14.31,16.3.19,24.44,0,1.47,0,2.91-1.24,4.36-1.9l6,6c-10.64,0-21.27.09-31.91,0-2.88,0-4.23.71-4.15,3.9.18,7.14.15,14.29,0,21.43,0,2.81,1,3.77,3.77,3.75,24.26-.13,48.52-.16,72.77-.22C81.93,301.76,82.17,302.7,82.4,303.65Z"/><path class="cls-8" d="M82.4,303.65c-.23-.95-.47-1.89-.7-2.83l-2.91-9.91c-6.52-22.31-13-44.64-19.63-66.9-1.5-5-1.53-8.91,5.34-11-7.3-3.21-9.19-8.36-9.6-15C53.17,169.62,51,141.25,49,112.87c-.12-1.64-.53-3.25-.81-4.88q-1.26-20.91-2.52-41.83a117,117,0,0,1-.54-12c.15-3.26.75-6.75,5.16-7.22-3.29,5.54-2.37,11.6-2,17.51q4.41,63.78,9,127.55c.16,2.33.69,4.65.66,7-.1,6.72,2.83,11.32,9.29,13.68-6.76,3.71-7.11,4.6-5,12,9.33,31.76,18.59,63.54,28.09,95.25,1,3.39,3.39,6.37,5.14,9.53l-7-5.51L85.42,314Q83.91,308.81,82.4,303.65Z"/><path class="cls-9" d="M394.17,125.91c-2.46,5.09-4.93,10.17-4,16.1.38,3.6,1,7.19,1.09,10.79.17,5.38,0,10.76,0,16.15,0,1-.05,2-.07,3a47.69,47.69,0,0,0-1.94,4.48c-3.08,9.76-8.54,17.77-17.07,23.57q1-14.49,2-29,1.1-11.58,2.2-23.17c8.3-4.89,9.55-13.72,12.15-21.79Z"/><path class="cls-10" d="M156.21,348l.9-14.81,48.31,0c-.07,1.66-.19,3.32-.19,5,0,9.83,0,9.83-10.1,9.82Z"/><path class="cls-11" d="M369.78,235.06l.53-9.07,29.89-1c5.32.33,10.64.86,16,.92a87.55,87.55,0,0,0,10-.93c3.91.48,8,.4,11.67,1.65,2,.7,3.34,3.59,5,5.5-2.06.95-4,2.25-6.19,2.75s-4.28.12-6.44.13l-2.07,0h-41.9l-2.07,0Z"/><path class="cls-10" d="M406.21,142c0-1,0-2,0-3,0-8.17,0-8.34,7.92-8.93,3.36-.25,3.08-2.24,3.08-4.43q0-15,0-29.91,0-47.85,0-95.71c3.53-.28,3,2.26,3,4.36q0,26.45,0,52.88c0,26.44-.11,52.89.11,79.32,0,4.49-1.27,6-5.63,5.49A74.73,74.73,0,0,0,406.21,142Z"/><path class="cls-7" d="M400.2,225l-29.89,1,.21-6,41,0c9.93,0,10,0,12.33-9.32C427,198,430,185.36,433.31,172H391.19c0-1,0-2,.07-3l45,.09a12.84,12.84,0,0,1-.11,2.49c-4.18,17-8.38,34-12.7,51.47-6.27,0-12.56-.12-18.85.1C403.09,223.15,401.65,224.34,400.2,225Z"/><path class="cls-10" d="M7.2,348c.6-8.61,2-10,10.27-10H55.19c0,10,0,10-9.8,10Z"/><path class="cls-12" d="M294.85,332.82l20.42-.24q-1.8,9.19-3.61,18.4l-16.59-4.08a1.09,1.09,0,0,0-.23-.9Q294.84,339.4,294.85,332.82Z"/><path class="cls-13" d="M307.58,375.85c-.18,2.61-1.23,3.18-3.9,2.44-6.68-1.86-13.47-3.31-20.22-4.93a35.81,35.81,0,0,1-6.26-1.55c-1.68-.74-3-2.19-4.53-3.32l.76-1.46c2.41,0,4.84.15,7.23,0,5.48-.4,10.94-1,16.41-1.46l9,2.25C306.59,370.48,307.08,373.16,307.58,375.85Z"/><path class="cls-13" d="M386.87,378.16c.6,3.2,1.2,6.41,2,10.58-10.95-1.72-21.54,1.31-31.68-1.39l.27-1.71L372,378l1.28-.76,11.25.4Z"/><path class="cls-7" d="M428.15,235.06l2.07,0c1.11,9.18,2.14,18.37,3.33,27.54q2.74,21.1,5.66,42.21c1.47,10.79,3,21.57,4.52,32.37a31.51,31.51,0,0,1,.06,10.63,15.5,15.5,0,0,1-1.54-3.67c-3-21.41-6.07-42.82-8.86-64.26C431.45,265,429.88,250,428.15,235.06Z"/><path class="cls-10" d="M400.2,225c1.45-.67,2.89-1.86,4.36-1.91,6.29-.22,12.58-.1,18.85-.1,4.32-17.48,8.52-34.47,12.7-51.47a12.84,12.84,0,0,0,.11-2.49l2,0,1,1q-6.35,25.77-12.68,51.53a22.13,22.13,0,0,0-.3,3.46,87.55,87.55,0,0,1-10,.93C410.84,225.87,405.52,225.34,400.2,225Z"/><path class="cls-7" d="M384.18,235l2.07,0c-1.45,11.77-2.82,23.56-4.35,35.32q-2.23,17.14-4.76,34.25c-.32,2.19-1.35,4.27-2.06,6.41-.37-2-.73-4-1.1-5.93a14.78,14.78,0,0,0,1.19-3.06c1.67-11.4,3.33-22.79,4.86-34.21C381.5,256.92,382.8,246,384.18,235Z"/><path class="cls-14" d="M365.44,359.9l18.44.13c1,1.83,2,3.67,3.32,6.06l-5.6.93-9.81,0a39.2,39.2,0,0,1-3.91-.38C364.66,366.07,363.63,363.13,365.44,359.9Z"/><path class="cls-14" d="M295.07,346.9,311.66,351c1.22,5.43.78,6.06-4.29,6.15l-9.27-2.3c-3.47-.93-6.4-2.36-5.57-6.75.11-.56,1.06-1,1.62-1.44A1.44,1.44,0,0,0,295.07,346.9Z"/><path class="cls-15" d="M371.79,367.06l9.81,0q1.47,5.31,3,10.62l-11.26-.4C372.8,373.85,372.29,370.45,371.79,367.06Z"/><path class="cls-16" d="M298.1,354.83l9.27,2.3q-.63,5.33-1.28,10.66l-9-2.25Q297.58,360.19,298.1,354.83Z"/><path class="cls-7" d="M439.18,170l-1-1Z"/><path class="cls-6" d="M295.07,346.9a1.44,1.44,0,0,1-.92-.26.9.9,0,0,1,.69-.64A1.09,1.09,0,0,1,295.07,346.9Z"/><path class="cls-17" d="M173.51,53.89h109c6.58,0,7.35.85,7.82,7.4q4.27,60.29,8.65,120.56c.33,4.65.6,9.3,1,14,.57,6.63-.64,8-7.29,8q-52.74,0-105.47,0H75.71c-7.32,0-8.2-.56-8.75-7.61-1.67-21.41-3.17-42.83-4.71-64.25-1.6-22.25-3.08-44.51-4.82-66.74-.86-11-.74-11.36,10.1-11.36Zm11.61,134.79c12.81.07,25.61.17,38.42.21,7.05,0,8.92-1.86,8.56-8.93q-1.38-26.65-3-53.29c-.28-4.85-2.71-7.37-7.61-7.4-13.47-.06-26.94.12-40.41.2-13.49-.08-27-.27-40.46-.19-5.29,0-7.25,2.66-6.89,8.12.2,3.16.3,6.32.48,9.48q1.26,22.19,2.52,44.38c.27,4.69,2.46,7.62,7.39,7.62C157.81,188.88,171.47,188.75,185.12,188.68Zm-32.88-73.76c-.26-3.76-.46-7-.7-10.34a27.53,27.53,0,0,1,4.86-18.43A26.83,26.83,0,0,1,185,75.6c12.22,3,21.62,12.87,23.2,24.65.65,4.88,1,9.8,1.4,14.59H220c1-19.26-4.29-35.42-21.48-45.38-13.89-8-28.44-8.37-42,.91-15.83,10.85-18.11,26.77-15,44.55Z"/><path class="cls-18" d="M211.69,278h-115c-8.45,0-9-.28-11.39-8.06C80.8,255.18,76.4,240.38,72,225.6c-1.53-5.09-1.13-5.63,4.44-5.63H221.87c25.66,0,51.32.09,77-.09,4.47,0,7,1.64,9.08,5.44,8.32,15.34,16.84,30.58,25.31,45.84,3.14,5.65,2.46,6.85-4.07,6.85Z"/><path class="cls-19" d="M279.19,9c41.17,0,82.33.06,123.49-.1,4.37,0,5.66,1.08,5.62,5.55-.21,25.81-.1,51.63-.1,78.19C399.47,78.24,385.85,73.5,371,71c-.12-2.9.9-4.83,3.85-6,3.43-1.32,5-4,4-7.82,2.35-3.32,4.81-6.56,7-10,.95-1.49,1-3.57,2-5,2.77-4.23,1.72-7-3.27-8.45-2.34-.7-5.06-1.37-6.69-3-3.59-3.54-7.52-3.82-11.95-2.68a46.6,46.6,0,0,1-6.75,1.69c-1.68.17-3.94,0-5-1-.77-.72,0-3.08.1-4.82-4.63,0-9.06,1.2-10.81,6.06-2,5.52,2.48,7.92,5.78,9.87v7.31q-.36,9.26-.71,18.52c-2.61.12-5.25.58-7.82.3-8.12-.86-16.21-2-24.3-3a9,9,0,0,1-1.42-.38L299.51,58c-.3-5-2.17-9.09-6.3-12A40.2,40.2,0,0,0,292,41.71C287.79,30.8,283.48,19.91,279.19,9Z"/><path class="cls-18" d="M269.3,322.75c-2.06.11-3.64.26-5.22.26-22,0-44-.08-66,.09-4,0-5.84-1.43-7.16-5.16-3.32-9.39-7-18.65-10.8-27.88-1.43-3.5-.7-5.05,3.12-5.05h65c3.11,0,5,1.29,6.38,4.43,4.28,9.92,9,19.64,13.54,29.46A30.52,30.52,0,0,1,269.3,322.75Z"/><path class="cls-20" d="M274.16,43.8c-1.83.1-3.65.3-5.47.3q-88.49,0-176.95,0c-1.83,0-3.65-.23-5.47-.35l18-5.82c1.3-.13,2.6-.29,3.91-.39L142.2,35c3.2-.65,6.43-1.21,9.62-2,11.58-2.72,23.18-5.39,34.72-8.3,12.77-3.23,25.2-7.57,38.88-5.91C244.89,21.19,259.81,31.78,274.16,43.8Z"/><path class="cls-21" d="M306.09,367.79q.65-5.34,1.28-10.66c5.07-.09,5.51-.72,4.29-6.15q1.81-9.21,3.61-18.4l41.28.25q4.44,13.53,8.89,27.07c-1.81,3.23-.78,6.17,2.44,6.78a39.2,39.2,0,0,0,3.91.38c.5,3.39,1,6.79,1.51,10.18L372,378l-64.45-2.15C307.08,373.16,306.59,370.48,306.09,367.79Z"/><path class="cls-22" d="M274.16,43.8c-14.35-12-29.27-22.61-48.74-25-13.68-1.66-26.11,2.68-38.88,5.91C175,27.65,163.4,30.32,151.82,33c-3.19.75-6.42,1.31-9.62,2a37.72,37.72,0,0,0-1.15-5.23c-2.54-6.95-5.22-13.84-7.86-20.76h131a40.84,40.84,0,0,0,1.15,4.28c3.92,10.22,7.9,20.42,11.86,30.63Z"/><path class="cls-23" d="M299.51,58l15.42,4.57a9,9,0,0,0,1.42.38c8.09,1,16.18,2.19,24.3,3,2.57.28,5.21-.18,7.82-.3l-.17.17.94,1.11c2.12,1.74,4,3.94,6.4,5.1,2.72,1.32,3.05,3.12,2.54,5.54-.86,4.08-3.93,5.31-7.59,5.72-2.49,0-5,0-7.46.16-5.76.43-12,0-16.07,5.11-5.45,6.81-10.46,14-15.78,21.16l7,5.64a27.29,27.29,0,0,1-3,4.45c-3.47,3.49-7.14,6.78-10.73,10.15q-2.16-30-4.33-60.1C299.94,65.94,299.75,62,299.51,58Z"/><path class="cls-22" d="M104.22,37.93l-18,5.82-21,.15c0-10.15.11-20.31-.11-30.46-.07-3.56,1.17-4.59,4.6-4.5C77.88,9.14,86,9,94.2,9c1,3.12,2.08,6.24,3.16,9.35Q100.76,28.16,104.22,37.93Z"/><path class="cls-9" d="M324.69,164.6Q316.9,190,309.13,215.33l-7.29-2.48c6.65-3,7.89-7.81,7.42-13.73-1.35-17.18-2.52-34.37-3.74-51.56-.13-1.81-.1-3.64-.14-5.46,9,0,14.31-5.85,19.49-12Z"/><path class="cls-24" d="M277.21,43.92c-4-10.21-7.94-20.41-11.86-30.63A40.84,40.84,0,0,1,264.2,9h15c4.29,10.9,8.6,21.79,12.85,32.7A40.2,40.2,0,0,1,293.21,46Z"/><path class="cls-15" d="M324.87,130.12c-5.18,6.13-10.53,12-19.49,12q-.42-6-.83-12.09c3.59-3.37,7.26-6.66,10.73-10.15a27.29,27.29,0,0,0,3-4.45l3.05,1.63L326,120.6C325.61,123.77,325.24,127,324.87,130.12Z"/><path class="cls-22" d="M331.05,249.2q1.71-6,3.41-12.08l1-2,6.18.07q.32,17.17.64,34.35Z"/><path class="cls-14" d="M321.33,117l-3.05-1.63-7-5.64c5.32-7.18,10.33-14.35,15.78-21.16,4.07-5.09,10.31-4.68,16.07-5.11,2.48-.19,5-.12,7.45-.16-1,5.13-.05,6.72,4.9,7.39,5.95.81,11.43-.46,16.08-4.51,5.16,1.28,10.38,2.37,15.47,3.89,6.75,2,10.5,6.62,10.09,13.67-.44,7.41-1.92,14.76-2.95,22.13l-5.67.18A68.3,68.3,0,0,1,380,126c-4.52-.58-6.51,1.34-7.56,5.62-.5,2-2.47,5-4.09,5.2-9.09,1.28-18.1,1-26.95-2.38-3.37-1.27-7.38-.85-11-1.19V143.3c8.3,1.27,16.12,2.15,23.79,3.72,7.39,1.52,14.66,3,22.14.86q-1.1,11.58-2.2,23.17l-49.46-6.44.18-34.49c.37-3.17.74-6.35,1.12-9.52l2.34-13.68-1-.27Zm15.86-9.79-1.3.52c2.2,5.59,4.29,11.23,6.67,16.75,1.25,2.89,3.65,2.77,5.6.81,3.85-3.86,8.06-7.56,11-12,5.51-8.36,4.18-14.08-6.05-15.47a45,45,0,0,0-5.85-.76C339.76,97,337.2,99.71,337.19,107.25Z"/><path class="cls-24" d="M391.19,172h42.12C430,185.36,427,198,423.81,210.68c-2.34,9.34-2.4,9.33-12.33,9.32l-41,0q.83-10,1.66-20c8.53-5.8,14-13.81,17.07-23.57A47.69,47.69,0,0,1,391.19,172Z"/><path class="cls-17" d="M384.18,235C382.8,246,381.5,256.92,380,267.85c-1.53,11.42-3.19,22.81-4.86,34.21a14.78,14.78,0,0,1-1.19,3.06c-5.13-23.13-5.84-46.52-4.2-70.06Z"/><path class="cls-25" d="M335.46,235.08l-1,2c-.42-1.68-1.44-3.46-1.17-5,2-11.84,4.34-23.65,6.59-35.46.15-.76.61-1.46,2-2.14q0,10.19,0,20.36Z"/><path class="cls-26" d="M335.46,235.08l6.39-20.22-.21,20.29Z"/><path class="cls-24" d="M104.22,37.93q-3.43-9.78-6.86-19.57C96.28,15.25,95.25,12.13,94.2,9h39c2.64,6.92,5.32,13.81,7.86,20.76A37.72,37.72,0,0,1,142.2,35l-34.07,2.54C106.82,37.64,105.52,37.8,104.22,37.93Z"/><path class="cls-16" d="M371.56,86.22c-4.65,4-10.13,5.32-16.08,4.51-5-.67-5.88-2.26-4.9-7.39,3.67-.41,6.74-1.64,7.6-5.72.51-2.42.18-4.22-2.54-5.54-2.39-1.16-4.28-3.36-6.4-5.1l-.94-1.11.17-.17q.34-9.26.71-18.52a22.79,22.79,0,0,1,2-2.73c1.17-1.21,2.54-3.27,3.73-3.21,4.87.25,9.71,1.17,14.11,1.78q.35,8.11.62,14.15h9.19c1,3.79-.56,6.5-4,7.82-2.95,1.14-4,3.07-3.85,6Z"/><path class="cls-10" d="M78.79,290.91l2.91,9.91c-24.25.06-48.51.09-72.77.22-2.78,0-3.82-.94-3.77-3.75.13-7.14.16-14.29,0-21.43-.08-3.19,1.27-3.93,4.15-3.9,10.64.11,21.27,0,31.91,0,4.68,2.79,9.37,5.57,14.57,8.65l-6.49,2.62C58.32,291.33,68.53,291.22,78.79,290.91Z"/><path class="cls-7" d="M85.42,314l3.18,9.92c-9.09-.3-18.24-.15-27.27-1.07-5-.51-9.76-2.95-13.77-8.85Z"/><path class="cls-15" d="M376.35,147.88c-7.48,2.15-14.75.66-22.14-.86-7.67-1.57-15.49-2.45-23.79-3.72V133.25c3.63.34,7.64-.08,11,1.19,8.85,3.35,17.86,3.66,26.95,2.38,1.62-.23,3.59-3.18,4.09-5.2,1-4.28,3-6.2,7.56-5.62a68.3,68.3,0,0,0,8.47.09C385.9,134.16,384.65,143,376.35,147.88Z"/><path class="cls-27" d="M185.12,188.68c-13.65.07-27.31.2-41,.2-4.93,0-7.12-2.93-7.39-7.62q-1.25-22.18-2.52-44.38c-.18-3.16-.28-6.32-.48-9.48-.36-5.46,1.6-8.09,6.89-8.12,13.49-.08,27,.11,40.46.19l1.17,17.24c-9.18,2.29-11.19,8.12-5.58,15.52a10.11,10.11,0,0,1,1.49,5.4c.2,4.37.06,8.75.06,13.15l6,.55Q184.7,180,185.12,188.68Z"/><path class="cls-28" d="M185.12,188.68q-.42-8.67-.83-17.35l4.94-.21,1.82-.22c-.53-1.33-1.07-2.66-1.61-4-.11-1-.23-1.93-.34-2.89s-.43-2.08-.65-3.12-.21-1.92-.32-2.89l-.6-3q1.88-5.5,3.74-11c-.29-.69-.59-1.38-.89-2.07l-2.23-2.84-4-2.06-1.9-.32-1.17-17.24c13.47-.08,26.94-.26,40.41-.2,4.9,0,7.33,2.55,7.61,7.4q1.56,26.64,3,53.29c.36,7.07-1.51,8.95-8.56,8.93C210.73,188.85,197.93,188.75,185.12,188.68Z"/><path class="cls-29" d="M152.24,114.92H141.62c-3.15-17.78-.87-33.7,15-44.55,13.54-9.28,28.09-9,42-.91,17.19,10,22.48,26.12,21.48,45.38H209.63c-.45-4.79-.75-9.71-1.4-14.59-1.58-11.78-11-21.68-23.2-24.65A26.83,26.83,0,0,0,156.4,86.15a27.53,27.53,0,0,0-4.86,18.43C151.78,107.87,152,111.16,152.24,114.92Z"/><path class="cls-13" d="M378.83,57.17h-9.19q-.27-6-.62-14.15c-4.4-.61-9.24-1.53-14.11-1.78-1.19-.06-2.56,2-3.73,3.21a22.79,22.79,0,0,0-2,2.73V39.87c-3.3-1.95-7.78-4.35-5.78-9.87,1.75-4.86,6.18-6.06,10.81-6.06-.09,1.74-.87,4.1-.1,4.82,1.06,1,3.32,1.13,5,1A46.6,46.6,0,0,0,365.86,28c4.43-1.14,8.36-.86,11.95,2.68,1.63,1.61,4.35,2.28,6.69,3,5,1.5,6,4.22,3.27,8.45-1,1.47-1,3.55-2,5C383.64,50.61,381.18,53.85,378.83,57.17Z"/><path class="cls-19" d="M348.3,65.87l.94,1.11Z"/><path class="cls-30" d="M321.33,117l6-10.39,1,.27L326,120.6Z"/><path class="cls-30" d="M337.19,107.25c0-7.54,2.57-10.21,10.08-10.2a45,45,0,0,1,5.85.76c10.23,1.39,11.56,7.11,6.05,15.47-2.95,4.49-7.16,8.19-11,12-2,2-4.35,2.08-5.6-.81-2.38-5.52-4.47-11.16-6.67-16.75Zm7.18,15.23,3.22,1.27c2.08-2.77,4.47-5.36,6.15-8.35,2-3.62,3.47-7.58,5.16-11.39-4.34-1.13-8.63-2.6-13-3.27-3.92-.6-6.11,1.93-5.44,5.7C341.38,111.85,343,117.14,344.37,122.48Z"/><path class="cls-12" d="M189.23,171.12l-4.94.21-6-.55c0-4.4.14-8.78-.06-13.15a10.11,10.11,0,0,0-1.49-5.4c-5.61-7.4-3.6-13.23,5.58-15.52l1.9.32,4,2.06,2.23,2.84c.3.69.6,1.38.89,2.07q-1.86,5.5-3.74,11l.6,3c.11,1,.21,1.93.32,2.9s.43,2.07.65,3.11.23,1.92.34,2.89Z"/><path class="cls-27" d="M189.23,171.12l.21-4.2c.54,1.32,1.08,2.65,1.61,4Z"/><path class="cls-27" d="M188.15,139.09l-4-2.06Z"/><path class="cls-27" d="M189.1,164c-.22-1-.44-2.08-.65-3.11C188.67,162,188.88,163,189.1,164Z"/><path class="cls-27" d="M188.13,158l-.6-3Z"/><path class="cls-27" d="M191.27,144c-.29-.69-.59-1.38-.89-2.07C190.68,142.62,191,143.31,191.27,144Z"/><path class="cls-22" d="M344.37,122.48c-1.35-5.34-3-10.63-3.95-16-.67-3.77,1.52-6.3,5.44-5.7,4.41.67,8.7,2.14,13,3.27-1.69,3.81-3.12,7.77-5.16,11.39-1.68,3-4.07,5.58-6.15,8.35Z"/></g></g></svg>